# xmcd
#
# Track frame offsets:
#	150
#	13852
#	28775
#	47844
#	62891
#	85315
#	101683
#	118959
#	131637
#	143246
#
# Disc length: 2264 seconds
# Revision: 1
# Processed by: cddbd v1.5.2PL0 Copyright (c) Steve Scherf et al.
# Submitted via: dBpowerAMP V12.0
#
DISCID=9308d60a
DTITLE=Willie Dixon and Memphis Slim - The Poet Of The Blues disc 09 Willie Dixon and Memphis Slim
DYEAR=2011
DGENRE=Blues
TTITLE0=Choo Choo
TTITLE1=4 O'Clock Boogie
TTITLE2=Rub My Root
TTITLE3=C Rocker
TTITLE4=Home to Mama
TTITLE5=Shaky
TTITLE6=After Hours
TTITLE7=One More Time
TTITLE8=John Henry
TTITLE9=Now Howdy
EXTD=
EXTT0=
EXTT1=
EXTT2=
EXTT3=
EXTT4=
EXTT5=
EXTT6=
EXTT7=
EXTT8=
EXTT9=
PLAYORDER=
